<?xml version="1.0" standalone="no"?><svg xmlns:xlink="http://www.w3.org/1999/xlink" xmlns="http://www.w3.org/2000/svg" viewBox="0 0 1000 583.3373349339736" preserveAspectRatio="xMaxYMax slice"><g transform="scale(0.9603841536614646)"><rect x="0" y="0" width="1041.2571428571428" height="607.4" fill="#ffffff"/><rect x="0" y="0" width="86.77" height="86.77" fill="#f6cecf"/><rect x="0" y="0" width="86.77" height="86.77" fill="#806f8b"/><rect x="86.77" y="0" width="86.77" height="86.77" fill="#f2babc"/><polygon points="86.77,0 173.54,0 173.54,86.77" fill="#fcfcfc"/><rect x="173.54285714285714" y="0" width="86.77142857142857" height="86.77142857142857" fill="#ffffff"/><rect x="173.54" y="0" width="43.39" height="43.39" fill="#f8dbdc"/><path d="M 173.54 43.39 A 43.39 43.39 0 0 1 216.93 0 L 216.93 10.8475 A 32.542500000000004 32.542500000000004 0 0 0 184.3875 43.39" fill="#f5c7c9"/><rect x="216.93" y="0" width="43.39" height="43.39" fill="#f9e0e1"/><path d="M 216.93 0 A 43.39 43.39 0 0 1 260.32 43.39 L 249.47250000000003 43.39 A 32.542500000000004 32.542500000000004 0 0 0 216.93 10.8475" fill="#f7d5d6"/><rect x="173.54" y="43.39" width="43.39" height="43.39" fill="#897893"/><path d="M 173.54 43.39 A 43.39 43.39 0 0 0 216.93 86.78 L 216.93 75.9325 A 32.542500000000004 32.542500000000004 0 0 1 184.3875 43.39" fill="#fcf0f0"/><rect x="216.93" y="43.39" width="43.39" height="43.39" fill="#f8dadb"/><path d="M 216.93 86.78 A 43.39 43.39 0 0 0 260.32 43.39 L 249.47250000000003 43.39 A 32.542500000000004 32.542500000000004 0 0 1 216.93 75.9325" fill="#fef9fa"/><rect x="260.3142857142857" y="0" width="86.77142857142857" height="86.77142857142857" fill="#ffffff"/><rect x="260.31" y="0" width="43.39" height="43.39" fill="#fae7e7"/><path d="M 260.31 0 A 43.39 43.39 0 0 1 303.7 43.39 L 260.31 43.39" fill="#9c8fa5"/><rect x="303.7" y="0" width="43.39" height="43.39" fill="#fdf2f3"/><path d="M 303.7 43.39 A 43.39 43.39 0 0 1  347.09 0 L 347.09 43.39" fill="#e8e4ea"/><rect x="260.31" y="43.39" width="43.39" height="43.39" fill="#9789a1"/><path d="M 260.31 86.78 A 43.39 43.39 0 0 0 303.7 43.39 L 260.31 43.39" fill="#f6ccce"/><rect x="303.7" y="43.39" width="43.39" height="43.39" fill="#f7f6f8"/><path d="M 303.7 43.39 A 43.39 43.39 0 0 0 347.09 86.78 L 347.09 43.39" fill="#f5c8ca"/><rect x="347.0857142857143" y="0" width="86.77142857142857" height="86.77142857142857" fill="#ffffff"/><rect x="347.09" y="0" width="43.39" height="43.39" fill="#8c7c96"/><path d="M 347.09 43.39 A 43.39 43.39 0 0 1  390.47999999999996 0 L 390.47999999999996 43.39" fill="#b5abbc"/><rect x="390.47" y="0" width="43.39" height="43.39" fill="#f4c3c5"/><path d="M 390.47 0 A 43.39 43.39 0 0 1 433.86 43.39 L 390.47 43.39" fill="#f5cacc"/><rect x="347.09" y="43.39" width="43.39" height="43.39" fill="#a599ad"/><path d="M 347.09 43.39 A 43.39 43.39 0 0 0 390.47999999999996 86.78 L 390.47999999999996 43.39" fill="#a79baf"/><rect x="390.47" y="43.39" width="43.39" height="43.39" fill="#eea3a6"/><path d="M 390.47 86.78 A 43.39 43.39 0 0 0 433.86 43.39 L 390.47 43.39" fill="#b1a6b8"/><rect x="433.86" y="0" width="86.77" height="86.77" fill="#efa6a9"/><path d="M 433.86 86.77 A 86.77 86.77 0 0 1  520.63 0 L 520.63 86.77" fill="#b4aabb"/><rect x="520.63" y="0" width="86.77" height="86.77" fill="#fcf0f0"/><polygon points="607.4,0 607.4,86.77 520.63,86.77" fill="#f5c7c9"/><rect x="607.4" y="0" width="86.77" height="86.77" fill="#fbebeb"/><polygon points="607.4,0 694.17,0 607.4,86.77" fill="#776583"/><rect x="694.17" y="0" width="86.77" height="86.77" fill="#83728e"/><rect x="694.17" y="0" width="86.77" height="86.77" fill="#f6d0d2"/><rect x="780.9428571428572" y="0" width="86.77142857142857" height="86.77142857142857" fill="#ffffff"/><rect x="780.94" y="0" width="43.39" height="43.39" fill="#8e7f98"/><polygon points="780.94,0 824.33,0 780.94,43.39" fill="#f9e0e1"/><rect x="824.33" y="0" width="43.39" height="43.39" fill="#f8d9da"/><polygon points="867.72,0 867.72,43.39 824.33,43.39" fill="#aa9eb2"/><rect x="780.94" y="43.39" width="43.39" height="43.39" fill="#e9e6eb"/><polygon points="780.94,43.39 824.33,43.39 824.33,86.78" fill="#766482"/><rect x="824.33" y="43.39" width="43.39" height="43.39" fill="#6f5c7c"/><polygon points="824.33,43.39 867.72,86.78 824.33,86.78" fill="#f7d4d6"/><rect x="867.71" y="0" width="86.77" height="86.77" fill="#efa6a9"/><path d="M 867.71 86.77 A 86.77 86.77 0 0 1  954.48 0 L 954.48 86.77" fill="#c5becb"/><rect x="954.4857142857143" y="0" width="86.77142857142857" height="86.77142857142857" fill="#ffffff"/><rect x="954.49" y="0" width="43.39" height="43.39" fill="#f2bbbd"/><polygon points="954.49,0 997.88,0 954.49,43.39" fill="#f8dbdc"/><rect x="997.87" y="0" width="43.39" height="43.39" fill="#e2dee5"/><polygon points="997.87,0 1041.26,0 1041.26,43.39" fill="#8f8099"/><rect x="954.49" y="43.39" width="43.39" height="43.39" fill="#bcb3c2"/><polygon points="997.88,43.39 997.88,86.78 954.49,86.78" fill="#d3ccd6"/><rect x="997.87" y="43.39" width="43.39" height="43.39" fill="#efabae"/><polygon points="997.87,43.39 1041.26,86.78 997.87,86.78" fill="#ccc5d0"/><rect x="0" y="86.77" width="86.77" height="86.77" fill="#a498ac"/><polygon points="0,86.77 86.77,173.54 0,173.54" fill="#f1b3b5"/><rect x="86.77" y="86.77" width="86.77" height="86.77" fill="#f0b1b3"/><polygon points="173.54,86.77 173.54,173.54 86.77,173.54" fill="#705d7d"/><rect x="173.54285714285714" y="86.77142857142857" width="86.77142857142857" height="86.77142857142857" fill="#ffffff"/><rect x="173.54" y="86.77" width="43.39" height="43.39" fill="#c0b8c6"/><polygon points="173.54,86.77 216.93,86.77 173.54,130.16" fill="#f4c5c6"/><rect x="216.93" y="86.77" width="43.39" height="43.39" fill="#867591"/><polygon points="216.93,86.77 260.32,86.77 260.32,130.16" fill="#eea1a4"/><rect x="173.54" y="130.16" width="43.39" height="43.39" fill="#afa4b6"/><polygon points="216.93,130.16 216.93,173.55 173.54,173.55" fill="#f1b2b4"/><rect x="216.93" y="130.16" width="43.39" height="43.39" fill="#f7d2d4"/><polygon points="216.93,130.16 260.32,173.55 216.93,173.55" fill="#fdf2f2"/><rect x="260.31" y="86.77" width="86.77" height="86.77" fill="#e7e3e9"/><rect x="260.31" y="86.77" width="86.77" height="86.77" fill="#c9c2ce"/><rect x="347.0857142857143" y="86.77142857142857" width="86.77142857142857" height="86.77142857142857" fill="#ffffff"/><rect x="347.09" y="86.77" width="43.39" height="43.39" fill="#f1b4b7"/><path d="M 347.09 86.77 A 43.39 43.39 0 0 1 390.47999999999996 130.16 L 347.09 130.16" fill="#f3bec0"/><rect x="390.47" y="86.77" width="43.39" height="43.39" fill="#a194aa"/><path d="M 390.47 130.16 A 43.39 43.39 0 0 1  433.86 86.77 L 433.86 130.16" fill="#f6cfd1"/><rect x="347.09" y="130.16" width="43.39" height="43.39" fill="#f7d5d7"/><path d="M 347.09 173.55 A 43.39 43.39 0 0 0 390.47999999999996 130.16 L 347.09 130.16" fill="#dbd7df"/><rect x="390.47" y="130.16" width="43.39" height="43.39" fill="#fae4e5"/><path d="M 390.47 130.16 A 43.39 43.39 0 0 0 433.86 173.55 L 433.86 130.16" fill="#9e91a7"/><rect x="433.86" y="86.77" width="86.77" height="86.77" fill="#d4ced7"/><rect x="433.86" y="86.77" width="86.77" height="86.77" fill="#fefbfc"/><rect x="520.6285714285714" y="86.77142857142857" width="86.77142857142857" height="86.77142857142857" fill="#ffffff"/><rect x="520.63" y="86.77" width="43.39" height="43.39" fill="#776583"/><path d="M 520.63 130.16 A 43.39 43.39 0 0 1 564.02 86.77 L 564.02 97.61749999999999 A 32.542500000000004 32.542500000000004 0 0 0 531.4775 130.16" fill="#ccc5d0"/><rect x="564.01" y="86.77" width="43.39" height="43.39" fill="#f4c3c5"/><path d="M 564.01 86.77 A 43.39 43.39 0 0 1 607.4 130.16 L 596.5525 130.16 A 32.542500000000004 32.542500000000004 0 0 0 564.01 97.61749999999999" fill="#f7d4d5"/><rect x="520.63" y="130.16" width="43.39" height="43.39" fill="#f7d2d3"/><path d="M 520.63 130.16 A 43.39 43.39 0 0 0 564.02 173.55 L 564.02 162.7025 A 32.542500000000004 32.542500000000004 0 0 1 531.4775 130.16" fill="#f0eef1"/><rect x="564.01" y="130.16" width="43.39" height="43.39" fill="#fdfdfd"/><path d="M 564.01 173.55 A 43.39 43.39 0 0 0 607.4 130.16 L 596.5525 130.16 A 32.542500000000004 32.542500000000004 0 0 1 564.01 162.7025" fill="#edeaef"/><rect x="607.4" y="86.77142857142857" width="86.77142857142857" height="86.77142857142857" fill="#ffffff"/><rect x="607.4" y="86.77" width="43.39" height="43.39" fill="#e1dde3"/><polygon points="607.4,86.77 650.79,86.77 607.4,130.16" fill="#f0b0b3"/><rect x="650.79" y="86.77" width="43.39" height="43.39" fill="#f6f5f7"/><polygon points="650.79,86.77 694.18,86.77 694.18,130.16" fill="#f2b7b9"/><rect x="607.4" y="130.16" width="43.39" height="43.39" fill="#e8e5ea"/><polygon points="650.79,130.16 650.79,173.55 607.4,173.55" fill="#f8dadb"/><rect x="650.79" y="130.16" width="43.39" height="43.39" fill="#b3a9ba"/><polygon points="650.79,130.16 694.18,173.55 650.79,173.55" fill="#f0b0b2"/><rect x="694.17" y="86.77" width="86.77" height="86.77" fill="#92839c"/><path d="M 694.17 173.54 A 86.77 86.77 0 0 1  780.9399999999999 86.77 L 780.9399999999999 173.54" fill="#f5c7c9"/><rect x="780.94" y="86.77" width="86.77" height="86.77" fill="#eae7ec"/><polygon points="867.71,86.77 867.71,173.54 780.94,173.54" fill="#fffdfd"/><rect x="867.7142857142858" y="86.77142857142857" width="86.77142857142857" height="86.77142857142857" fill="#ffffff"/><rect x="867.71" y="86.77" width="43.39" height="43.39" fill="#fae4e5"/><circle cx="889.4050000000001" cy="108.465" r="21.695" fill="#a092a8"/><rect x="911.1" y="86.77" width="43.39" height="43.39" fill="#f8d9da"/><rect x="911.1" y="86.77" width="43.39" height="43.39" fill="#b6acbc"/><rect x="867.71" y="130.16" width="43.39" height="43.39" fill="#eda0a3"/><circle cx="889.4050000000001" cy="151.855" r="21.695" fill="#725f7f"/><rect x="911.1" y="130.16" width="43.39" height="43.39" fill="#877792"/><rect x="911.1" y="130.16" width="43.39" height="43.39" fill="#f5f4f6"/><rect x="954.4857142857143" y="86.77142857142857" width="86.77142857142857" height="86.77142857142857" fill="#ffffff"/><rect x="954.49" y="86.77" width="43.39" height="43.39" fill="#f8dcdd"/><path d="M 954.49 86.77 A 43.39 43.39 0 0 0 997.88 130.16 L 997.88 86.77" fill="#f2b8ba"/><rect x="997.87" y="86.77" width="43.39" height="43.39" fill="#93849c"/><path d="M 997.87 130.16 A 43.39 43.39 0 0 0 1041.26 86.77 L 997.87 86.77" fill="#f6cecf"/><rect x="954.49" y="130.16" width="43.39" height="43.39" fill="#d4ced8"/><path d="M 954.49 173.55 A 43.39 43.39 0 0 1  997.88 130.16 L 997.88 173.55" fill="#867591"/><rect x="997.87" y="130.16" width="43.39" height="43.39" fill="#f9e1e1"/><path d="M 997.87 130.16 A 43.39 43.39 0 0 1 1041.26 173.55 L 997.87 173.55" fill="#f1b5b7"/><rect x="0" y="173.54" width="86.77" height="86.77" fill="#fbfafb"/><polygon points="0,173.54 86.77,173.54 86.77,260.31" fill="#f7d2d4"/><rect x="86.77142857142857" y="173.54285714285714" width="86.77142857142857" height="86.77142857142857" fill="#ffffff"/><rect x="86.77" y="173.54" width="43.39" height="43.39" fill="#e8e5ea"/><path d="M 86.77 216.93 A 43.39 43.39 0 0 0 130.16 173.54 L 86.77 173.54" fill="#e5e1e7"/><rect x="130.16" y="173.54" width="43.39" height="43.39" fill="#eea3a6"/><path d="M 130.16 173.54 A 43.39 43.39 0 0 0 173.55 216.93 L 173.55 173.54" fill="#e5e1e7"/><rect x="86.77" y="216.93" width="43.39" height="43.39" fill="#efa9ab"/><path d="M 86.77 216.93 A 43.39 43.39 0 0 1 130.16 260.32 L 86.77 260.32" fill="#f2bcbe"/><rect x="130.16" y="216.93" width="43.39" height="43.39" fill="#fdf4f4"/><path d="M 130.16 260.32 A 43.39 43.39 0 0 1  173.55 216.93 L 173.55 260.32" fill="#fcf1f2"/><rect x="173.54285714285714" y="173.54285714285714" width="86.77142857142857" height="86.77142857142857" fill="#ffffff"/><rect x="173.54" y="173.54" width="43.39" height="43.39" fill="#fae2e3"/><path d="M 173.54 216.93 A 43.39 43.39 0 0 0 216.93 173.54 L 173.54 173.54" fill="#796685"/><rect x="216.93" y="173.54" width="43.39" height="43.39" fill="#d4ced7"/><path d="M 216.93 173.54 A 43.39 43.39 0 0 0 260.32 216.93 L 260.32 173.54" fill="#fbfafb"/><rect x="173.54" y="216.93" width="43.39" height="43.39" fill="#d2ccd6"/><path d="M 173.54 216.93 A 43.39 43.39 0 0 1 216.93 260.32 L 173.54 260.32" fill="#a89db0"/><rect x="216.93" y="216.93" width="43.39" height="43.39" fill="#fbebeb"/><path d="M 216.93 260.32 A 43.39 43.39 0 0 1  260.32 216.93 L 260.32 260.32" fill="#f4c6c8"/><rect x="260.31" y="173.54" width="86.77" height="86.77" fill="#f1b4b6"/><polygon points="260.31,173.54 347.08,173.54 347.08,260.31" fill="#fbe7e8"/><rect x="347.0857142857143" y="173.54285714285714" width="86.77142857142857" height="86.77142857142857" fill="#ffffff"/><rect x="347.09" y="173.54" width="43.39" height="43.39" fill="#dbd6de"/><path d="M 347.09 216.93 A 43.39 43.39 0 0 1  390.47999999999996 173.54 L 390.47999999999996 216.93" fill="#a598ad"/><rect x="390.47" y="173.54" width="43.39" height="43.39" fill="#fae1e2"/><path d="M 390.47 173.54 A 43.39 43.39 0 0 1 433.86 216.93 L 390.47 216.93" fill="#705d7d"/><rect x="347.09" y="216.93" width="43.39" height="43.39" fill="#746180"/><path d="M 347.09 216.93 A 43.39 43.39 0 0 0 390.47999999999996 260.32 L 390.47999999999996 216.93" fill="#f4c6c7"/><rect x="390.47" y="216.93" width="43.39" height="43.39" fill="#877792"/><path d="M 390.47 260.32 A 43.39 43.39 0 0 0 433.86 216.93 L 390.47 216.93" fill="#fcfcfc"/><rect x="433.86" y="173.54" width="86.77" height="86.77" fill="#f7d5d6"/><rect x="433.86" y="173.54" width="86.77" height="86.77" fill="#fcfcfd"/><rect x="520.63" y="173.54" width="86.77" height="86.77" fill="#f6cfd1"/><path d="M 520.63 173.54 A 86.77 86.77 0 0 1  607.4 260.31 L 520.63 173.54 A 86.77 86.77 0 0 0 607.4 260.31" fill="#fefafa"/><rect x="607.4" y="173.54" width="86.77" height="86.77" fill="#bfb6c5"/><path d="M 607.4 260.31 A 86.77 86.77 0 0 1  694.17 173.54 L 694.17 260.31" fill="#f1b6b8"/><rect x="694.1714285714286" y="173.54285714285714" width="86.77142857142857" height="86.77142857142857" fill="#ffffff"/><rect x="694.17" y="173.54" width="43.39" height="43.39" fill="#f4f2f5"/><path d="M 694.17 216.93 A 43.39 43.39 0 0 1 737.56 173.54 L 737.56 184.3875 A 32.542500000000004 32.542500000000004 0 0 0 705.0174999999999 216.93" fill="#fef7f8"/><rect x="737.56" y="173.54" width="43.39" height="43.39" fill="#efa8ab"/><path d="M 737.56 173.54 A 43.39 43.39 0 0 1 780.9499999999999 216.93 L 770.1025 216.93 A 32.542500000000004 32.542500000000004 0 0 0 737.56 184.3875" fill="#fdfdfd"/><rect x="694.17" y="216.93" width="43.39" height="43.39" fill="#fefefe"/><path d="M 694.17 216.93 A 43.39 43.39 0 0 0 737.56 260.32 L 737.56 249.47250000000003 A 32.542500000000004 32.542500000000004 0 0 1 705.0174999999999 216.93" fill="#ed9ea1"/><rect x="737.56" y="216.93" width="43.39" height="43.39" fill="#f5cacc"/><path d="M 737.56 260.32 A 43.39 43.39 0 0 0 780.9499999999999 216.93 L 770.1025 216.93 A 32.542500000000004 32.542500000000004 0 0 1 737.56 249.47250000000003" fill="#f3bec0"/><rect x="780.94" y="173.54" width="86.77" height="86.77" fill="#fbfbfc"/><rect x="780.94" y="173.54" width="86.77" height="86.77" fill="#f2f0f3"/><rect x="867.71" y="173.54" width="86.77" height="86.77" fill="#fbe7e8"/><rect x="867.71" y="173.54" width="86.77" height="86.77" fill="#887893"/><rect x="954.4857142857143" y="173.54285714285714" width="86.77142857142857" height="86.77142857142857" fill="#ffffff"/><rect x="954.49" y="173.54" width="43.39" height="43.39" fill="#a194a9"/><polygon points="954.49,173.54 997.88,173.54 954.49,216.93" fill="#ffffff"/><rect x="997.87" y="173.54" width="43.39" height="43.39" fill="#e8e5ea"/><polygon points="1041.26,173.54 1041.26,216.93 997.87,216.93" fill="#fdf5f6"/><rect x="954.49" y="216.93" width="43.39" height="43.39" fill="#c1b8c6"/><polygon points="954.49,216.93 997.88,216.93 997.88,260.32" fill="#f7f6f8"/><rect x="997.87" y="216.93" width="43.39" height="43.39" fill="#faf9fa"/><polygon points="997.87,216.93 1041.26,260.32 997.87,260.32" fill="#fbe8e9"/><rect x="0" y="260.3142857142857" width="86.77142857142857" height="86.77142857142857" fill="#ffffff"/><rect x="0" y="260.31" width="43.39" height="43.39" fill="#f0aeb0"/><path d="M 0 303.7 A 43.39 43.39 0 0 1  43.39 260.31 L 43.39 303.7" fill="#ddd8e0"/><rect x="43.39" y="260.31" width="43.39" height="43.39" fill="#c7c0cc"/><path d="M 43.39 260.31 A 43.39 43.39 0 0 1 86.78 303.7 L 43.39 303.7" fill="#e0dce3"/><rect x="0" y="303.7" width="43.39" height="43.39" fill="#eea3a6"/><path d="M 0 303.7 A 43.39 43.39 0 0 0 43.39 347.09 L 43.39 303.7" fill="#eea2a5"/><rect x="43.39" y="303.7" width="43.39" height="43.39" fill="#fbebec"/><path d="M 43.39 347.09 A 43.39 43.39 0 0 0 86.78 303.7 L 43.39 303.7" fill="#fefefe"/><rect x="86.77" y="260.31" width="86.77" height="86.77" fill="#cec8d3"/><rect x="86.77" y="260.31" width="86.77" height="86.77" fill="#f1b2b4"/><rect x="173.54285714285714" y="260.3142857142857" width="86.77142857142857" height="86.77142857142857" fill="#ffffff"/><rect x="173.54" y="260.31" width="43.39" height="43.39" fill="#f3bcbe"/><circle cx="195.23499999999999" cy="282.005" r="21.695" fill="#9c8ea5"/><rect x="216.93" y="260.31" width="43.39" height="43.39" fill="#eea1a4"/><rect x="216.93" y="260.31" width="43.39" height="43.39" fill="#f7d5d6"/><rect x="173.54" y="303.7" width="43.39" height="43.39" fill="#bfb6c5"/><circle cx="195.23499999999999" cy="325.395" r="21.695" fill="#f0adaf"/><rect x="216.93" y="303.7" width="43.39" height="43.39" fill="#cfc9d3"/><rect x="216.93" y="303.7" width="43.39" height="43.39" fill="#90809a"/><rect x="260.3142857142857" y="260.3142857142857" width="86.77142857142857" height="86.77142857142857" fill="#ffffff"/><rect x="260.31" y="260.31" width="43.39" height="43.39" fill="#f9e1e2"/><path d="M 260.31 260.31 A 43.39 43.39 0 0 0 303.7 303.7 L 303.7 260.31" fill="#b6acbd"/><rect x="303.7" y="260.31" width="43.39" height="43.39" fill="#f6cdcf"/><path d="M 303.7 303.7 A 43.39 43.39 0 0 0 347.09 260.31 L 303.7 260.31" fill="#91829b"/><rect x="260.31" y="303.7" width="43.39" height="43.39" fill="#f4c5c6"/><path d="M 260.31 347.09 A 43.39 43.39 0 0 1  303.7 303.7 L 303.7 347.09" fill="#beb5c3"/><rect x="303.7" y="303.7" width="43.39" height="43.39" fill="#715e7e"/><path d="M 303.7 303.7 A 43.39 43.39 0 0 1 347.09 347.09 L 303.7 347.09" fill="#7b6987"/><rect x="347.0857142857143" y="260.3142857142857" width="86.77142857142857" height="86.77142857142857" fill="#ffffff"/><rect x="347.09" y="260.31" width="43.39" height="43.39" fill="#fffdfd"/><path d="M 347.09 303.7 A 43.39 43.39 0 0 1  390.47999999999996 260.31 L 390.47999999999996 303.7" fill="#efabad"/><rect x="390.47" y="260.31" width="43.39" height="43.39" fill="#fffdfd"/><path d="M 390.47 260.31 A 43.39 43.39 0 0 1 433.86 303.7 L 390.47 303.7" fill="#fefbfb"/><rect x="347.09" y="303.7" width="43.39" height="43.39" fill="#f4c3c5"/><path d="M 347.09 303.7 A 43.39 43.39 0 0 0 390.47999999999996 347.09 L 390.47999999999996 303.7" fill="#c4bbc9"/><rect x="390.47" y="303.7" width="43.39" height="43.39" fill="#715e7e"/><path d="M 390.47 347.09 A 43.39 43.39 0 0 0 433.86 303.7 L 390.47 303.7" fill="#e4e1e7"/><rect x="433.86" y="260.31" width="86.77" height="86.77" fill="#857490"/><path d="M 433.86 347.08 A 86.77 86.77 0 0 1  520.63 260.31 L 520.63 347.08" fill="#f9dedf"/><rect x="520.6285714285714" y="260.3142857142857" width="86.77142857142857" height="86.77142857142857" fill="#ffffff"/><rect x="520.63" y="260.31" width="43.39" height="43.39" fill="#efedf0"/><polygon points="520.63,260.31 564.02,260.31 520.63,303.7" fill="#dfdae1"/><rect x="564.01" y="260.31" width="43.39" height="43.39" fill="#eea5a8"/><polygon points="564.01,260.31 607.4,260.31 607.4,303.7" fill="#f0acae"/><rect x="520.63" y="303.7" width="43.39" height="43.39" fill="#6d597a"/><polygon points="564.02,303.7 564.02,347.09 520.63,347.09" fill="#786684"/><rect x="564.01" y="303.7" width="43.39" height="43.39" fill="#7e6d8a"/><polygon points="564.01,303.7 607.4,347.09 564.01,347.09" fill="#f4c4c6"/><rect x="607.4" y="260.31" width="86.77" height="86.77" fill="#f6cdcf"/><path d="M 607.4 347.08 A 86.77 86.77 0 0 0 694.17 260.31 L 607.4 260.31" fill="#f4c4c6"/><rect x="694.17" y="260.31" width="86.77" height="86.77" fill="#c5bdca"/><rect x="694.17" y="260.31" width="86.77" height="86.77" fill="#f3bdbf"/><rect x="780.9428571428572" y="260.3142857142857" width="86.77142857142857" height="86.77142857142857" fill="#ffffff"/><rect x="780.94" y="260.31" width="43.39" height="43.39" fill="#766483"/><path d="M 780.94 303.7 A 43.39 43.39 0 0 0 824.33 260.31 L 780.94 260.31" fill="#fdf6f7"/><rect x="824.33" y="260.31" width="43.39" height="43.39" fill="#f2bbbd"/><path d="M 824.33 260.31 A 43.39 43.39 0 0 0 867.72 303.7 L 867.72 260.31" fill="#8a7a94"/><rect x="780.94" y="303.7" width="43.39" height="43.39" fill="#f2bbbd"/><path d="M 780.94 303.7 A 43.39 43.39 0 0 1 824.33 347.09 L 780.94 347.09" fill="#a69aae"/><rect x="824.33" y="303.7" width="43.39" height="43.39" fill="#b4aabb"/><path d="M 824.33 347.09 A 43.39 43.39 0 0 1  867.72 303.7 L 867.72 347.09" fill="#b9b0c0"/><rect x="867.71" y="260.31" width="86.77" height="86.77" fill="#6e5a7b"/><rect x="867.71" y="260.31" width="86.77" height="86.77" fill="#fbe8e8"/><rect x="954.49" y="260.31" width="86.77" height="86.77" fill="#9f92a8"/><polygon points="954.49,260.31 1041.26,347.08 954.49,347.08" fill="#f1eff2"/><rect x="0" y="347.0857142857143" width="86.77142857142857" height="86.77142857142857" fill="#ffffff"/><rect x="0" y="347.09" width="43.39" height="43.39" fill="#ed9ea1"/><polygon points="0,347.09 43.39,347.09 0,390.47999999999996" fill="#cfc8d3"/><rect x="43.39" y="347.09" width="43.39" height="43.39" fill="#f2babc"/><polygon points="86.78,347.09 86.78,390.47999999999996 43.39,390.47999999999996" fill="#f5c9cb"/><rect x="0" y="390.47" width="43.39" height="43.39" fill="#eceaee"/><polygon points="0,390.47 43.39,390.47 43.39,433.86" fill="#efa7a9"/><rect x="43.39" y="390.47" width="43.39" height="43.39" fill="#83728e"/><polygon points="43.39,390.47 86.78,433.86 43.39,433.86" fill="#f7d1d3"/><rect x="86.77142857142857" y="347.0857142857143" width="86.77142857142857" height="86.77142857142857" fill="#ffffff"/><rect x="86.77" y="347.09" width="43.39" height="43.39" fill="#fef9f9"/><polygon points="86.77,347.09 130.16,347.09 86.77,390.47999999999996" fill="#f8d7d8"/><rect x="130.16" y="347.09" width="43.39" height="43.39" fill="#b6acbc"/><polygon points="130.16,347.09 173.55,347.09 173.55,390.47999999999996" fill="#93849c"/><rect x="86.77" y="390.47" width="43.39" height="43.39" fill="#f9ddde"/><polygon points="86.77,390.47 130.16,433.86 86.77,433.86" fill="#fae3e4"/><rect x="130.16" y="390.47" width="43.39" height="43.39" fill="#f0adb0"/><polygon points="173.55,390.47 173.55,433.86 130.16,433.86" fill="#83728e"/><rect x="173.54" y="347.09" width="86.77" height="86.77" fill="#fdf4f4"/><path d="M 173.54 433.85999999999996 A 86.77 86.77 0 0 0 260.31 347.09 L 173.54 347.09" fill="#faf9fa"/><rect x="260.31" y="347.09" width="86.77" height="86.77" fill="#82718d"/><rect x="260.31" y="347.09" width="86.77" height="86.77" fill="#756281"/><rect x="347.0857142857143" y="347.0857142857143" width="86.77142857142857" height="86.77142857142857" fill="#ffffff"/><rect x="347.09" y="347.09" width="43.39" height="43.39" fill="#afa4b6"/><path d="M 347.09 347.09 A 43.39 43.39 0 0 0 390.47999999999996 390.47999999999996 L 390.47999999999996 347.09" fill="#9788a0"/><rect x="390.47" y="347.09" width="43.39" height="43.39" fill="#eda0a3"/><path d="M 390.47 390.47999999999996 A 43.39 43.39 0 0 0 433.86 347.09 L 390.47 347.09" fill="#a99db0"/><rect x="347.09" y="390.47" width="43.39" height="43.39" fill="#84738f"/><path d="M 347.09 433.86 A 43.39 43.39 0 0 1  390.47999999999996 390.47 L 390.47999999999996 433.86" fill="#f1b5b7"/><rect x="390.47" y="390.47" width="43.39" height="43.39" fill="#f6d0d2"/><path d="M 390.47 390.47 A 43.39 43.39 0 0 1 433.86 433.86 L 390.47 433.86" fill="#756281"/><rect x="433.8571428571429" y="347.0857142857143" width="86.77142857142857" height="86.77142857142857" fill="#ffffff"/><rect x="433.86" y="347.09" width="43.39" height="43.39" fill="#84748f"/><polygon points="433.86,347.09 477.25,347.09 433.86,390.47999999999996" fill="#f7d6d7"/><rect x="477.24" y="347.09" width="43.39" height="43.39" fill="#fbebec"/><polygon points="477.24,347.09 520.63,347.09 520.63,390.47999999999996" fill="#f1b2b4"/><rect x="433.86" y="390.47" width="43.39" height="43.39" fill="#f2bbbd"/><polygon points="433.86,390.47 477.25,433.86 433.86,433.86" fill="#eea2a5"/><rect x="477.24" y="390.47" width="43.39" height="43.39" fill="#736080"/><polygon points="520.63,390.47 520.63,433.86 477.24,433.86" fill="#f1b4b7"/><rect x="520.63" y="347.09" width="86.77" height="86.77" fill="#897893"/><polygon points="607.4,347.09 607.4,433.85999999999996 520.63,433.85999999999996" fill="#f2b7b9"/><rect x="607.4" y="347.09" width="86.77" height="86.77" fill="#c2bac8"/><path d="M 607.4 347.09 A 86.77 86.77 0 0 1 694.17 433.85999999999996 L 607.4 433.85999999999996" fill="#f3c1c3"/><rect x="694.1714285714286" y="347.0857142857143" width="86.77142857142857" height="86.77142857142857" fill="#ffffff"/><rect x="694.17" y="347.09" width="43.39" height="43.39" fill="#7a6786"/><path d="M 694.17 390.47999999999996 A 43.39 43.39 0 0 1 737.56 347.09 L 737.56 357.9375 A 32.542500000000004 32.542500000000004 0 0 0 705.0174999999999 390.47999999999996" fill="#f2f0f3"/><rect x="737.56" y="347.09" width="43.39" height="43.39" fill="#eea4a7"/><path d="M 737.56 347.09 A 43.39 43.39 0 0 1 780.9499999999999 390.47999999999996 L 770.1025 390.47999999999996 A 32.542500000000004 32.542500000000004 0 0 0 737.56 357.9375" fill="#f6cdce"/><rect x="694.17" y="390.47" width="43.39" height="43.39" fill="#aea3b5"/><path d="M 694.17 390.47 A 43.39 43.39 0 0 0 737.56 433.86 L 737.56 423.01250000000005 A 32.542500000000004 32.542500000000004 0 0 1 705.0174999999999 390.47" fill="#eda1a3"/><rect x="737.56" y="390.47" width="43.39" height="43.39" fill="#bbb2c1"/><path d="M 737.56 433.86 A 43.39 43.39 0 0 0 780.9499999999999 390.47 L 770.1025 390.47 A 32.542500000000004 32.542500000000004 0 0 1 737.56 423.01250000000005" fill="#b5abbc"/><rect x="780.9428571428572" y="347.0857142857143" width="86.77142857142857" height="86.77142857142857" fill="#ffffff"/><rect x="780.94" y="347.09" width="43.39" height="43.39" fill="#fceded"/><circle cx="802.6350000000001" cy="368.78499999999997" r="21.695" fill="#fdf3f3"/><rect x="824.33" y="347.09" width="43.39" height="43.39" fill="#8b7b95"/><rect x="824.33" y="347.09" width="43.39" height="43.39" fill="#f6cfd0"/><rect x="780.94" y="390.47" width="43.39" height="43.39" fill="#f6ced0"/><circle cx="802.6350000000001" cy="412.165" r="21.695" fill="#c3bac8"/><rect x="824.33" y="390.47" width="43.39" height="43.39" fill="#93859d"/><rect x="824.33" y="390.47" width="43.39" height="43.39" fill="#fbeaeb"/><rect x="867.71" y="347.09" width="86.77" height="86.77" fill="#f8dadb"/><polygon points="867.71,347.09 954.48,347.09 867.71,433.85999999999996" fill="#f2babc"/><rect x="954.49" y="347.09" width="86.77" height="86.77" fill="#dbd6de"/><path d="M 954.49 433.85999999999996 A 86.77 86.77 0 0 1  1041.26 347.09 L 954.49 433.85999999999996 A 86.77 86.77 0 0 0 1041.26 347.09" fill="#c5bdca"/><rect x="0" y="433.86" width="86.77" height="86.77" fill="#eeecef"/><rect x="0" y="433.86" width="86.77" height="86.77" fill="#efa9ac"/><rect x="86.77142857142857" y="433.8571428571429" width="86.77142857142857" height="86.77142857142857" fill="#ffffff"/><rect x="86.77" y="433.86" width="43.39" height="43.39" fill="#faf9fa"/><path d="M 86.77 433.86 A 43.39 43.39 0 0 1 130.16 477.25 L 86.77 477.25" fill="#f9ddde"/><rect x="130.16" y="433.86" width="43.39" height="43.39" fill="#f4f3f5"/><path d="M 130.16 477.25 A 43.39 43.39 0 0 1  173.55 433.86 L 173.55 477.25" fill="#a599ad"/><rect x="86.77" y="477.24" width="43.39" height="43.39" fill="#fae3e4"/><path d="M 86.77 520.63 A 43.39 43.39 0 0 0 130.16 477.24 L 86.77 477.24" fill="#dcd7df"/><rect x="130.16" y="477.24" width="43.39" height="43.39" fill="#f6cdcf"/><path d="M 130.16 477.24 A 43.39 43.39 0 0 0 173.55 520.63 L 173.55 477.24" fill="#fbebeb"/><rect x="173.54285714285714" y="433.8571428571429" width="86.77142857142857" height="86.77142857142857" fill="#ffffff"/><rect x="173.54" y="433.86" width="43.39" height="43.39" fill="#f7f6f8"/><polygon points="173.54,433.86 216.93,433.86 173.54,477.25" fill="#f1b5b7"/><rect x="216.93" y="433.86" width="43.39" height="43.39" fill="#fdf4f4"/><polygon points="216.93,433.86 260.32,433.86 260.32,477.25" fill="#6f5b7c"/><rect x="173.54" y="477.24" width="43.39" height="43.39" fill="#b2a8b9"/><polygon points="216.93,477.24 216.93,520.63 173.54,520.63" fill="#9688a0"/><rect x="216.93" y="477.24" width="43.39" height="43.39" fill="#fceced"/><polygon points="216.93,477.24 260.32,520.63 216.93,520.63" fill="#efa8ab"/><rect x="260.31" y="433.86" width="86.77" height="86.77" fill="#f9dcdd"/><rect x="260.31" y="433.86" width="86.77" height="86.77" fill="#f7d6d8"/><rect x="347.09" y="433.86" width="86.77" height="86.77" fill="#beb5c4"/><path d="M 347.09 520.63 A 86.77 86.77 0 0 1  433.85999999999996 433.86 L 433.85999999999996 520.63" fill="#cac3cf"/><rect x="433.86" y="433.86" width="86.77" height="86.77" fill="#725f7f"/><polygon points="520.63,433.86 520.63,520.63 433.86,520.63" fill="#f0acaf"/><rect x="520.6285714285714" y="433.8571428571429" width="86.77142857142857" height="86.77142857142857" fill="#ffffff"/><rect x="520.63" y="433.86" width="43.39" height="43.39" fill="#f9ddde"/><path d="M 520.63 477.25 A 43.39 43.39 0 0 1  564.02 433.86 L 564.02 477.25" fill="#f3f2f4"/><rect x="564.01" y="433.86" width="43.39" height="43.39" fill="#a99db0"/><path d="M 564.01 433.86 A 43.39 43.39 0 0 1 607.4 477.25 L 564.01 477.25" fill="#f8dbdc"/><rect x="520.63" y="477.24" width="43.39" height="43.39" fill="#f1b6b8"/><path d="M 520.63 477.24 A 43.39 43.39 0 0 0 564.02 520.63 L 564.02 477.24" fill="#aca1b4"/><rect x="564.01" y="477.24" width="43.39" height="43.39" fill="#ece9ee"/><path d="M 564.01 520.63 A 43.39 43.39 0 0 0 607.4 477.24 L 564.01 477.24" fill="#a396ab"/><rect x="607.4" y="433.8571428571429" width="86.77142857142857" height="86.77142857142857" fill="#ffffff"/><rect x="607.4" y="433.86" width="43.39" height="43.39" fill="#ed9ea1"/><path d="M 607.4 477.25 A 43.39 43.39 0 0 1 650.79 433.86 L 650.79 444.70750000000004 A 32.542500000000004 32.542500000000004 0 0 0 618.2475 477.25" fill="#ccc5d0"/><rect x="650.79" y="433.86" width="43.39" height="43.39" fill="#edebef"/><path d="M 650.79 433.86 A 43.39 43.39 0 0 1 694.18 477.25 L 683.3325 477.25 A 32.542500000000004 32.542500000000004 0 0 0 650.79 444.70750000000004" fill="#fdf2f3"/><rect x="607.4" y="477.24" width="43.39" height="43.39" fill="#c1b9c7"/><path d="M 607.4 477.24 A 43.39 43.39 0 0 0 650.79 520.63 L 650.79 509.7825 A 32.542500000000004 32.542500000000004 0 0 1 618.2475 477.24" fill="#efa6a9"/><rect x="650.79" y="477.24" width="43.39" height="43.39" fill="#f8f7f8"/><path d="M 650.79 520.63 A 43.39 43.39 0 0 0 694.18 477.24 L 683.3325 477.24 A 32.542500000000004 32.542500000000004 0 0 1 650.79 509.7825" fill="#7f6e8b"/><rect x="694.1714285714286" y="433.8571428571429" width="86.77142857142857" height="86.77142857142857" fill="#ffffff"/><rect x="694.17" y="433.86" width="43.39" height="43.39" fill="#f6cdce"/><polygon points="694.17,433.86 737.56,433.86 694.17,477.25" fill="#85748f"/><rect x="737.56" y="433.86" width="43.39" height="43.39" fill="#fbeaea"/><polygon points="737.56,433.86 780.9499999999999,433.86 780.9499999999999,477.25" fill="#8d7d97"/><rect x="694.17" y="477.24" width="43.39" height="43.39" fill="#bbb2c1"/><polygon points="737.56,477.24 737.56,520.63 694.17,520.63" fill="#f4c3c4"/><rect x="737.56" y="477.24" width="43.39" height="43.39" fill="#f0adaf"/><polygon points="737.56,477.24 780.9499999999999,520.63 737.56,520.63" fill="#f9e0e1"/><rect x="780.9428571428572" y="433.8571428571429" width="86.77142857142857" height="86.77142857142857" fill="#ffffff"/><rect x="780.94" y="433.86" width="43.39" height="43.39" fill="#fae6e7"/><path d="M 780.94 433.86 A 43.39 43.39 0 0 1 824.33 477.25 L 780.94 477.25" fill="#f0acae"/><rect x="824.33" y="433.86" width="43.39" height="43.39" fill="#beb5c4"/><path d="M 824.33 477.25 A 43.39 43.39 0 0 1  867.72 433.86 L 867.72 477.25" fill="#81708c"/><rect x="780.94" y="477.24" width="43.39" height="43.39" fill="#f7d6d7"/><path d="M 780.94 520.63 A 43.39 43.39 0 0 0 824.33 477.24 L 780.94 477.24" fill="#f1b4b6"/><rect x="824.33" y="477.24" width="43.39" height="43.39" fill="#fcf0f1"/><path d="M 824.33 477.24 A 43.39 43.39 0 0 0 867.72 520.63 L 867.72 477.24" fill="#f0b1b3"/><rect x="867.71" y="433.86" width="86.77" height="86.77" fill="#f5cacc"/><polygon points="867.71,433.86 954.48,520.63 867.71,520.63" fill="#c2bac7"/><rect x="954.49" y="433.86" width="86.77" height="86.77" fill="#f5c8ca"/><path d="M 954.49 433.86 A 86.77 86.77 0 0 1  1041.26 520.63 L 954.49 433.86 A 86.77 86.77 0 0 0 1041.26 520.63" fill="#f9ddde"/><rect x="0" y="520.6285714285714" width="86.77142857142857" height="86.77142857142857" fill="#ffffff"/><rect x="0" y="520.63" width="43.39" height="43.39" fill="#f8d7d8"/><polygon points="0,520.63 43.39,520.63 0,564.02" fill="#e4e0e6"/><rect x="43.39" y="520.63" width="43.39" height="43.39" fill="#f2b7b9"/><polygon points="43.39,520.63 86.78,520.63 86.78,564.02" fill="#f9dfe0"/><rect x="0" y="564.01" width="43.39" height="43.39" fill="#b4aabb"/><polygon points="0,564.01 43.39,607.4 0,607.4" fill="#f5c9ca"/><rect x="43.39" y="564.01" width="43.39" height="43.39" fill="#f8d9da"/><polygon points="86.78,564.01 86.78,607.4 43.39,607.4" fill="#f1b1b3"/><rect x="86.77" y="520.63" width="86.77" height="86.77" fill="#a093a8"/><rect x="86.77" y="520.63" width="86.77" height="86.77" fill="#8b7b95"/><rect x="173.54" y="520.63" width="86.77" height="86.77" fill="#fae2e3"/><polygon points="260.31,520.63 260.31,607.4 173.54,607.4" fill="#a599ad"/><rect x="260.31" y="520.63" width="86.77" height="86.77" fill="#fdf2f2"/><path d="M 260.31 607.4 A 86.77 86.77 0 0 0 347.08 520.63 L 260.31 520.63" fill="#faf9fa"/><rect x="347.09" y="520.63" width="86.77" height="86.77" fill="#f4c3c4"/><rect x="347.09" y="520.63" width="86.77" height="86.77" fill="#fefafa"/><rect x="433.86" y="520.63" width="86.77" height="86.77" fill="#fbebec"/><path d="M 433.86 520.63 A 86.77 86.77 0 0 1  520.63 607.4 L 433.86 520.63 A 86.77 86.77 0 0 0 520.63 607.4" fill="#f5c7c9"/><rect x="520.63" y="520.63" width="86.77" height="86.77" fill="#796785"/><rect x="520.63" y="520.63" width="86.77" height="86.77" fill="#f4c3c5"/><rect x="607.4" y="520.6285714285714" width="86.77142857142857" height="86.77142857142857" fill="#ffffff"/><rect x="607.4" y="520.63" width="43.39" height="43.39" fill="#b5abbc"/><path d="M 607.4 564.02 A 43.39 43.39 0 0 1  650.79 520.63 L 650.79 564.02" fill="#a497ac"/><rect x="650.79" y="520.63" width="43.39" height="43.39" fill="#b5abbc"/><path d="M 650.79 520.63 A 43.39 43.39 0 0 1 694.18 564.02 L 650.79 564.02" fill="#93849d"/><rect x="607.4" y="564.01" width="43.39" height="43.39" fill="#7b6987"/><path d="M 607.4 564.01 A 43.39 43.39 0 0 0 650.79 607.4 L 650.79 564.01" fill="#8b7b96"/><rect x="650.79" y="564.01" width="43.39" height="43.39" fill="#e7e4e9"/><path d="M 650.79 607.4 A 43.39 43.39 0 0 0 694.18 564.01 L 650.79 564.01" fill="#fdf4f4"/><rect x="694.1714285714286" y="520.6285714285714" width="86.77142857142857" height="86.77142857142857" fill="#ffffff"/><rect x="694.17" y="520.63" width="43.39" height="43.39" fill="#f8dcdd"/><path d="M 694.17 564.02 A 43.39 43.39 0 0 1 737.56 520.63 L 737.56 531.4775 A 32.542500000000004 32.542500000000004 0 0 0 705.0174999999999 564.02" fill="#9f92a8"/><rect x="737.56" y="520.63" width="43.39" height="43.39" fill="#f6ced0"/><path d="M 737.56 520.63 A 43.39 43.39 0 0 1 780.9499999999999 564.02 L 770.1025 564.02 A 32.542500000000004 32.542500000000004 0 0 0 737.56 531.4775" fill="#f6cdce"/><rect x="694.17" y="564.01" width="43.39" height="43.39" fill="#f7d3d5"/><path d="M 694.17 564.01 A 43.39 43.39 0 0 0 737.56 607.4 L 737.56 596.5525 A 32.542500000000004 32.542500000000004 0 0 1 705.0174999999999 564.01" fill="#ece9ee"/><rect x="737.56" y="564.01" width="43.39" height="43.39" fill="#fcedee"/><path d="M 737.56 607.4 A 43.39 43.39 0 0 0 780.9499999999999 564.01 L 770.1025 564.01 A 32.542500000000004 32.542500000000004 0 0 1 737.56 596.5525" fill="#f1b4b6"/><rect x="780.9428571428572" y="520.6285714285714" width="86.77142857142857" height="86.77142857142857" fill="#ffffff"/><rect x="780.94" y="520.63" width="43.39" height="43.39" fill="#a498ac"/><path d="M 780.94 520.63 A 43.39 43.39 0 0 1 824.33 564.02 L 780.94 564.02" fill="#82718d"/><rect x="824.33" y="520.63" width="43.39" height="43.39" fill="#998ba2"/><path d="M 824.33 564.02 A 43.39 43.39 0 0 1  867.72 520.63 L 867.72 564.02" fill="#9a8ca3"/><rect x="780.94" y="564.01" width="43.39" height="43.39" fill="#f2f0f3"/><path d="M 780.94 607.4 A 43.39 43.39 0 0 0 824.33 564.01 L 780.94 564.01" fill="#f7d1d3"/><rect x="824.33" y="564.01" width="43.39" height="43.39" fill="#f5c9cb"/><path d="M 824.33 564.01 A 43.39 43.39 0 0 0 867.72 607.4 L 867.72 564.01" fill="#fcf1f1"/><rect x="867.7142857142858" y="520.6285714285714" width="86.77142857142857" height="86.77142857142857" fill="#ffffff"/><rect x="867.71" y="520.63" width="43.39" height="43.39" fill="#eea5a8"/><path d="M 867.71 520.63 A 43.39 43.39 0 0 1 911.1 564.02 L 867.71 564.02" fill="#eea1a4"/><rect x="911.1" y="520.63" width="43.39" height="43.39" fill="#eea2a5"/><path d="M 911.1 564.02 A 43.39 43.39 0 0 1  954.49 520.63 L 954.49 564.02" fill="#f7d6d7"/><rect x="867.71" y="564.01" width="43.39" height="43.39" fill="#f2babc"/><path d="M 867.71 607.4 A 43.39 43.39 0 0 0 911.1 564.01 L 867.71 564.01" fill="#fbe7e8"/><rect x="911.1" y="564.01" width="43.39" height="43.39" fill="#f1b6b8"/><path d="M 911.1 564.01 A 43.39 43.39 0 0 0 954.49 607.4 L 954.49 564.01" fill="#d4ced8"/><rect x="954.4857142857143" y="520.6285714285714" width="86.77142857142857" height="86.77142857142857" fill="#ffffff"/><rect x="954.49" y="520.63" width="43.39" height="43.39" fill="#e0dbe2"/><path d="M 954.49 520.63 A 43.39 43.39 0 0 0 997.88 564.02 L 997.88 520.63" fill="#dad5dd"/><rect x="997.87" y="520.63" width="43.39" height="43.39" fill="#93849d"/><path d="M 997.87 564.02 A 43.39 43.39 0 0 0 1041.26 520.63 L 997.87 520.63" fill="#f1b5b8"/><rect x="954.49" y="564.01" width="43.39" height="43.39" fill="#eeecf0"/><path d="M 954.49 607.4 A 43.39 43.39 0 0 1  997.88 564.01 L 997.88 607.4" fill="#f3f1f4"/><rect x="997.87" y="564.01" width="43.39" height="43.39" fill="#92839c"/><path d="M 997.87 564.01 A 43.39 43.39 0 0 1 1041.26 607.4 L 997.87 607.4" fill="#f5cacc"/></g></svg>