<svg xmlns:dc="http://purl.org/dc/elements/1.1/" xmlns:cc="http://creativecommons.org/ns#" xmlns:rdf="http://www.w3.org/1999/02/22-rdf-syntax-ns#" xmlns:svg="http://www.w3.org/2000/svg" xmlns="http://www.w3.org/2000/svg" viewBox="0 0 64 80" version="1.1" xml:space="preserve" style="" x="0px" y="0px" fill-rule="evenodd" clip-rule="evenodd" stroke-linecap="round" stroke-linejoin="round" stroke-miterlimit="2"><path style="color:#FAFAFAFA;font-style:normal;font-variant:normal;font-weight:normal;font-stretch:normal;font-size:medium;line-height:normal;font-family:sans-serif;font-variant-ligatures:normal;font-variant-position:normal;font-variant-caps:normal;font-variant-numeric:normal;font-variant-alternates:normal;font-variant-east-asian:normal;font-feature-settings:normal;font-variation-settings:normal;text-indent:0;text-align:start;text-decoration:none;text-decoration-line:none;text-decoration-style:solid;text-decoration-color:#FAFAFAFA;letter-spacing:normal;word-spacing:normal;text-transform:none;writing-mode:lr-tb;direction:ltr;text-orientation:mixed;dominant-baseline:auto;baseline-shift:baseline;text-anchor:start;white-space:normal;shape-padding:0;shape-margin:0;inline-size:0;clip-rule:nonzero;display:inline;overflow:visible;visibility:visible;isolation:auto;mix-blend-mode:normal;color-interpolation:sRGB;color-interpolation-filters:linearRGB;solid-color:#FAFAFAFA;solid-opacity:1;vector-effect:none;fill:#FAFAFAFA;fill-opacity:1;fill-rule:nonzero;stroke:none;stroke-width:3px;stroke-linecap:butt;stroke-linejoin:miter;stroke-miterlimit:2;stroke-dasharray:none;stroke-dashoffset:0;stroke-opacity:1;filter-blend-mode:normal;filter-gaussianBlur-deviation:0;color-rendering:auto;image-rendering:auto;shape-rendering:auto;text-rendering:auto;enable-background:accumulate;stop-color:#FAFAFAFA;stop-opacity:1;opacity:1" d="M 20 6.5 C 18.011766 6.5 16.103921 7.2899061 14.697266 8.6953125 A 1.50015 1.50015 0 0 0 14.695312 8.6972656 C 13.289907 10.103921 12.5 12.011766 12.5 14 L 12.5 50 A 1.5 1.5 0 0 0 12.613281 50.572266 C 12.753629 52.344123 13.430042 54.036339 14.695312 55.302734 A 1.50015 1.50015 0 0 0 14.697266 55.304688 C 16.103921 56.710093 18.011766 57.5 20 57.5 L 50 57.5 A 1.5 1.5 0 0 0 51.5 56 A 1.5 1.5 0 0 0 50 54.5 L 20 54.5 C 18.807155 54.5 17.663512 54.026965 16.818359 53.183594 L 16.816406 53.181641 C 15.973035 52.336488 15.5 51.192845 15.5 50 C 15.5 48.806234 15.973766 47.661751 16.818359 46.816406 C 17.663512 45.973035 18.807155 45.5 20 45.5 L 44 45.5 C 45.988234 45.5 47.896079 44.710093 49.302734 43.304688 A 1.50015 1.50015 0 0 0 49.304688 43.302734 C 50.710093 41.896079 51.5 39.988234 51.5 38 L 51.5 14 C 51.5 12.011766 50.710093 10.103921 49.304688 8.6972656 A 1.50015 1.50015 0 0 0 49.302734 8.6953125 C 47.896079 7.2899061 45.988234 6.5 44 6.5 L 20 6.5 z M 20 9.5 L 44 9.5 C 45.193766 9.5 46.338249 9.9737662 47.183594 10.818359 C 48.026965 11.663512 48.5 12.807155 48.5 14 L 48.5 38 C 48.5 39.192845 48.026965 40.336488 47.183594 41.181641 C 47.183594 41.181641 47.181641 41.181641 47.181641 41.181641 C 47.181641 41.181641 47.181641 41.183594 47.181641 41.183594 C 46.336488 42.026965 45.192845 42.5 44 42.5 L 20 42.5 C 18.339519 42.5 16.803328 43.15973 15.5 44.160156 L 15.5 14 C 15.5 12.806234 15.973766 11.661751 16.818359 10.816406 C 17.663512 9.9730356 18.807155 9.5 20 9.5 z M 44.5 30 A 1.5 1.5 0 0 0 43 31.5 L 43 35.5 C 43 35.899015 42.841737 36.277903 42.560547 36.558594 A 1.50015 1.50015 0 0 0 42.558594 36.560547 C 42.277903 36.841737 41.899015 37 41.5 37 L 37.5 37 A 1.5 1.5 0 0 0 36 38.5 A 1.5 1.5 0 0 0 37.5 40 L 41.5 40 C 42.692985 40 43.838331 39.52645 44.681641 38.681641 C 45.52645 37.838331 46 36.692985 46 35.5 L 46 31.5 A 1.5 1.5 0 0 0 44.5 30 z M 20 48.5 A 1.5 1.5 0 0 0 18.5 50 A 1.5 1.5 0 0 0 20 51.5 L 50 51.5 A 1.5 1.5 0 0 0 51.5 50 A 1.5 1.5 0 0 0 50 48.5 L 20 48.5 z "/></svg>
